<mxfile host="65bd71144e">
    <diagram name="Page-1" id="tWezB2ck2QAuVJHFnouS">
        <mxGraphModel dx="814" dy="277" grid="0" gridSize="10" guides="1" tooltips="1" connect="1" arrows="1" fold="1" page="0" pageScale="1" pageWidth="850" pageHeight="1100" math="0" shadow="0">
            <root>
                <mxCell id="0"/>
                <mxCell id="1" parent="0"/>
                <mxCell id="2" value="Controller" style="rounded=0;whiteSpace=wrap;html=1;" parent="1" vertex="1">
                    <mxGeometry x="539" y="182" width="61" height="237" as="geometry"/>
                </mxCell>
                <mxCell id="7" value="Worker" style="rounded=0;whiteSpace=wrap;html=1;" parent="1" vertex="1">
                    <mxGeometry x="700" y="182" width="61" height="237" as="geometry"/>
                </mxCell>
                <mxCell id="8" value="User" style="rounded=0;whiteSpace=wrap;html=1;" parent="1" vertex="1">
                    <mxGeometry x="378" y="182" width="61" height="237" as="geometry"/>
                </mxCell>
                <mxCell id="9" value="REGISTER" style="endArrow=classic;html=1;exitX=-0.001;exitY=0.127;exitDx=0;exitDy=0;exitPerimeter=0;entryX=0.994;entryY=0.129;entryDx=0;entryDy=0;entryPerimeter=0;" parent="1" source="7" target="2" edge="1">
                    <mxGeometry width="50" height="50" relative="1" as="geometry">
                        <mxPoint x="628" y="285" as="sourcePoint"/>
                        <mxPoint x="678" y="235" as="targetPoint"/>
                    </mxGeometry>
                </mxCell>
                <mxCell id="10" value="REQUEST" style="endArrow=classic;html=1;exitX=1;exitY=0.25;exitDx=0;exitDy=0;entryX=0;entryY=0.25;entryDx=0;entryDy=0;" parent="1" edge="1">
                    <mxGeometry width="50" height="50" relative="1" as="geometry">
                        <mxPoint x="439" y="236.2499999999999" as="sourcePoint"/>
                        <mxPoint x="539" y="236.25000000000023" as="targetPoint"/>
                    </mxGeometry>
                </mxCell>
                <mxCell id="11" value="START" style="endArrow=classic;html=1;exitX=0.999;exitY=0.364;exitDx=0;exitDy=0;exitPerimeter=0;entryX=-0.001;entryY=0.357;entryDx=0;entryDy=0;entryPerimeter=0;" parent="1" edge="1">
                    <mxGeometry width="50" height="50" relative="1" as="geometry">
                        <mxPoint x="599.9389999999999" y="258.26800000000003" as="sourcePoint"/>
                        <mxPoint x="699.9390000000001" y="256.60900000000004" as="targetPoint"/>
                    </mxGeometry>
                </mxCell>
                <mxCell id="12" value="SEND" style="endArrow=classic;html=1;exitX=1;exitY=0.5;exitDx=0;exitDy=0;entryX=0;entryY=0.5;entryDx=0;entryDy=0;" parent="1" edge="1">
                    <mxGeometry width="50" height="50" relative="1" as="geometry">
                        <mxPoint x="599.9999999999998" y="293.5" as="sourcePoint"/>
                        <mxPoint x="700.0000000000002" y="293.5" as="targetPoint"/>
                    </mxGeometry>
                </mxCell>
                <mxCell id="13" value="ACK" style="endArrow=classic;html=1;exitX=1;exitY=0.5;exitDx=0;exitDy=0;entryX=0;entryY=0.5;entryDx=0;entryDy=0;" parent="1" edge="1">
                    <mxGeometry width="50" height="50" relative="1" as="geometry">
                        <mxPoint x="700" y="308.6451612903227" as="sourcePoint"/>
                        <mxPoint x="600" y="308.6451612903227" as="targetPoint"/>
                    </mxGeometry>
                </mxCell>
                <mxCell id="14" value="UDP" style="endArrow=classic;html=1;exitX=1.004;exitY=0.563;exitDx=0;exitDy=0;exitPerimeter=0;" parent="1" edge="1">
                    <mxGeometry width="50" height="50" relative="1" as="geometry">
                        <mxPoint x="761.2440000000004" y="294" as="sourcePoint"/>
                        <mxPoint x="854" y="294" as="targetPoint"/>
                    </mxGeometry>
                </mxCell>
                <mxCell id="15" value="Internet" style="rounded=0;whiteSpace=wrap;html=1;" parent="1" vertex="1">
                    <mxGeometry x="854" y="182" width="61" height="237" as="geometry"/>
                </mxCell>
                <mxCell id="16" value="&lt;font style=&quot;font-size: 7px;&quot;&gt;(Repeat &lt;i&gt;n&lt;/i&gt;&amp;nbsp;times)&lt;/font&gt;" style="text;html=1;strokeColor=none;fillColor=none;align=center;verticalAlign=middle;whiteSpace=wrap;rounded=0;" parent="1" vertex="1">
                    <mxGeometry x="620" y="302" width="60" height="30" as="geometry"/>
                </mxCell>
                <mxCell id="17" value="ICMP" style="endArrow=classic;html=1;exitX=1.004;exitY=0.563;exitDx=0;exitDy=0;exitPerimeter=0;" parent="1" edge="1">
                    <mxGeometry width="50" height="50" relative="1" as="geometry">
                        <mxPoint x="854.0000000000002" y="341" as="sourcePoint"/>
                        <mxPoint x="761.2440000000006" y="341" as="targetPoint"/>
                    </mxGeometry>
                </mxCell>
                <mxCell id="18" value="REPLY" style="endArrow=classic;html=1;exitX=1;exitY=0.5;exitDx=0;exitDy=0;entryX=0;entryY=0.5;entryDx=0;entryDy=0;" parent="1" edge="1">
                    <mxGeometry width="50" height="50" relative="1" as="geometry">
                        <mxPoint x="700.0000000000002" y="340.6451612903227" as="sourcePoint"/>
                        <mxPoint x="599.9999999999998" y="340.6451612903227" as="targetPoint"/>
                    </mxGeometry>
                </mxCell>
                <mxCell id="19" value="&lt;font style=&quot;font-size: 7px;&quot;&gt;(Repeat &lt;i&gt;n&lt;/i&gt;&amp;nbsp;times)&lt;/font&gt;" style="text;html=1;strokeColor=none;fillColor=none;align=center;verticalAlign=middle;whiteSpace=wrap;rounded=0;" parent="1" vertex="1">
                    <mxGeometry x="620" y="335" width="60" height="30" as="geometry"/>
                </mxCell>
                <mxCell id="20" value="STOP" style="endArrow=classic;html=1;exitX=1;exitY=0.5;exitDx=0;exitDy=0;entryX=0;entryY=0.5;entryDx=0;entryDy=0;" parent="1" edge="1">
                    <mxGeometry width="50" height="50" relative="1" as="geometry">
                        <mxPoint x="599.9999999999998" y="390.5" as="sourcePoint"/>
                        <mxPoint x="700.0000000000002" y="390.5" as="targetPoint"/>
                    </mxGeometry>
                </mxCell>
                <mxCell id="21" value="RESPONSE" style="endArrow=classic;html=1;exitX=1;exitY=0.25;exitDx=0;exitDy=0;entryX=0;entryY=0.25;entryDx=0;entryDy=0;" parent="1" edge="1">
                    <mxGeometry width="50" height="50" relative="1" as="geometry">
                        <mxPoint x="539" y="409.2499999999999" as="sourcePoint"/>
                        <mxPoint x="439" y="409.2500000000002" as="targetPoint"/>
                    </mxGeometry>
                </mxCell>
                <mxCell id="25" value="Worker" style="rounded=0;whiteSpace=wrap;html=1;verticalAlign=top;" parent="1" vertex="1">
                    <mxGeometry x="505" y="525" width="163" height="163" as="geometry"/>
                </mxCell>
                <mxCell id="27" value="START" style="endArrow=classic;html=1;exitX=0.999;exitY=0.364;exitDx=0;exitDy=0;exitPerimeter=0;entryX=-0.001;entryY=0.357;entryDx=0;entryDy=0;entryPerimeter=0;" parent="1" edge="1">
                    <mxGeometry width="50" height="50" relative="1" as="geometry">
                        <mxPoint x="404.99899999999985" y="563.658" as="sourcePoint"/>
                        <mxPoint x="504.9990000000003" y="561.999" as="targetPoint"/>
                    </mxGeometry>
                </mxCell>
                <mxCell id="28" value="- session_id &lt;i&gt;i&lt;/i&gt;&lt;br&gt;- filter&lt;br&gt;- hmac (TODO)" style="text;html=1;strokeColor=none;fillColor=none;align=left;verticalAlign=top;whiteSpace=wrap;rounded=0;fontSize=8;" parent="1" vertex="1">
                    <mxGeometry x="437" y="564" width="62" height="46" as="geometry"/>
                </mxCell>
                <mxCell id="30" value="&lt;font style=&quot;font-size: 12px;&quot;&gt;Listener Agent session &lt;i&gt;i&lt;/i&gt;&lt;/font&gt;" style="whiteSpace=wrap;html=1;aspect=fixed;fontSize=8;" parent="1" vertex="1">
                    <mxGeometry x="781" y="583" width="72" height="72" as="geometry"/>
                </mxCell>
                <mxCell id="31" value="" style="endArrow=none;dashed=1;html=1;dashPattern=1 3;strokeWidth=5;fontSize=12;" parent="1" edge="1">
                    <mxGeometry width="50" height="50" relative="1" as="geometry">
                        <mxPoint x="816.6" y="573" as="sourcePoint"/>
                        <mxPoint x="816.6" y="523" as="targetPoint"/>
                    </mxGeometry>
                </mxCell>
                <mxCell id="32" value="ICMP" style="endArrow=classic;html=1;strokeWidth=1;fontSize=12;" parent="1" edge="1">
                    <mxGeometry width="50" height="50" relative="1" as="geometry">
                        <mxPoint x="940" y="618.58" as="sourcePoint"/>
                        <mxPoint x="853" y="618.58" as="targetPoint"/>
                    </mxGeometry>
                </mxCell>
                <mxCell id="33" value="&lt;font style=&quot;font-size: 12px;&quot;&gt;ICMP&lt;br&gt;&lt;/font&gt;" style="endArrow=classic;html=1;strokeWidth=1;fontSize=12;exitX=0;exitY=0.5;exitDx=0;exitDy=0;entryX=0.997;entryY=0.183;entryDx=0;entryDy=0;entryPerimeter=0;" parent="1" source="30" edge="1">
                    <mxGeometry width="50" height="50" relative="1" as="geometry">
                        <mxPoint x="710" y="666" as="sourcePoint"/>
                        <mxPoint x="667.511" y="618.829" as="targetPoint"/>
                    </mxGeometry>
                </mxCell>
                <mxCell id="35" value="&lt;font style=&quot;font-size: 8px;&quot;&gt;&lt;span style=&quot;font-family: Helvetica; font-style: normal; font-variant-ligatures: normal; font-variant-caps: normal; font-weight: 400; letter-spacing: normal; orphans: 2; text-align: center; text-indent: 0px; text-transform: none; widows: 2; word-spacing: 0px; -webkit-text-stroke-width: 0px; text-decoration-thickness: initial; text-decoration-style: initial; text-decoration-color: initial; float: none; display: inline !important;&quot;&gt;(only&amp;nbsp;&lt;/span&gt;&lt;span style=&quot;font-family: Helvetica; font-style: normal; font-variant-ligatures: normal; font-variant-caps: normal; font-weight: 400; letter-spacing: normal; orphans: 2; text-align: center; text-indent: 0px; text-transform: none; widows: 2; word-spacing: 0px; -webkit-text-stroke-width: 0px; text-decoration-thickness: initial; text-decoration-style: initial; text-decoration-color: initial; float: none; display: inline !important;&quot;&gt;include session&lt;span&gt;&amp;nbsp;&lt;/span&gt;&lt;/span&gt;&lt;i style=&quot;border-color: rgb(0, 0, 0); font-family: Helvetica; font-variant-ligatures: normal; font-variant-caps: normal; font-weight: 400; letter-spacing: normal; orphans: 2; text-align: center; text-indent: 0px; text-transform: none; widows: 2; word-spacing: 0px; -webkit-text-stroke-width: 0px; text-decoration-thickness: initial; text-decoration-style: initial; text-decoration-color: initial;&quot;&gt;i&lt;/i&gt;&lt;span style=&quot;font-family: Helvetica; font-style: normal; font-variant-ligatures: normal; font-variant-caps: normal; font-weight: 400; letter-spacing: normal; orphans: 2; text-align: center; text-indent: 0px; text-transform: none; widows: 2; word-spacing: 0px; -webkit-text-stroke-width: 0px; text-decoration-thickness: initial; text-decoration-style: initial; text-decoration-color: initial; float: none; display: inline !important;&quot;&gt;)&lt;/span&gt;&lt;/font&gt;" style="text;html=1;strokeColor=none;fillColor=none;align=center;verticalAlign=middle;whiteSpace=wrap;rounded=0;fontSize=12;" parent="1" vertex="1">
                    <mxGeometry x="676" y="614" width="99" height="30" as="geometry"/>
                </mxCell>
                <mxCell id="36" value="Stores session_id &lt;font face=&quot;Verdana&quot;&gt;-&amp;gt; &lt;/font&gt;listener agent" style="text;html=1;strokeColor=none;fillColor=none;align=center;verticalAlign=middle;whiteSpace=wrap;rounded=0;fontSize=8;" parent="1" vertex="1">
                    <mxGeometry x="516" y="547" width="135" height="30" as="geometry"/>
                </mxCell>
                <mxCell id="37" value="&lt;font style=&quot;font-size: 12px;&quot;&gt;Thread Pool&lt;/font&gt;" style="text;html=1;strokeColor=none;fillColor=none;align=center;verticalAlign=middle;whiteSpace=wrap;rounded=0;fontFamily=Verdana;fontSize=8;" parent="1" vertex="1">
                    <mxGeometry x="775" y="481" width="84" height="30" as="geometry"/>
                </mxCell>
                <mxCell id="38" value="STOP" style="endArrow=classic;html=1;exitX=0.999;exitY=0.364;exitDx=0;exitDy=0;exitPerimeter=0;entryX=-0.001;entryY=0.357;entryDx=0;entryDy=0;entryPerimeter=0;" parent="1" edge="1">
                    <mxGeometry width="50" height="50" relative="1" as="geometry">
                        <mxPoint x="404.9989999999998" y="666.658" as="sourcePoint"/>
                        <mxPoint x="504.99900000000025" y="664.999" as="targetPoint"/>
                    </mxGeometry>
                </mxCell>
                <mxCell id="39" value="Deletes session_id &lt;font face=&quot;Verdana&quot;&gt;-&amp;gt; &lt;/font&gt;listener agent" style="text;html=1;strokeColor=none;fillColor=none;align=center;verticalAlign=middle;whiteSpace=wrap;rounded=0;fontSize=8;" parent="1" vertex="1">
                    <mxGeometry x="516" y="649" width="135" height="30" as="geometry"/>
                </mxCell>
                <mxCell id="43" value="Controller" style="rounded=0;whiteSpace=wrap;html=1;fontFamily=Verdana;fontSize=12;verticalAlign=top;" parent="1" vertex="1">
                    <mxGeometry x="-120" y="392" width="267" height="190" as="geometry"/>
                </mxCell>
                <mxCell id="44" value="Session Context" style="rounded=0;whiteSpace=wrap;html=1;fontFamily=Verdana;fontSize=12;verticalAlign=top;" parent="1" vertex="1">
                    <mxGeometry x="-111" y="455" width="120" height="118" as="geometry"/>
                </mxCell>
                <mxCell id="45" value="Worker Context" style="rounded=0;whiteSpace=wrap;html=1;fontFamily=Verdana;fontSize=12;verticalAlign=top;" parent="1" vertex="1">
                    <mxGeometry x="18" y="455" width="120" height="118" as="geometry"/>
                </mxCell>
                <mxCell id="47" style="edgeStyle=none;html=1;entryX=0;entryY=0.5;entryDx=0;entryDy=0;strokeWidth=1;fontFamily=Verdana;fontSize=12;" parent="1" source="46" target="44" edge="1">
                    <mxGeometry relative="1" as="geometry"/>
                </mxCell>
                <mxCell id="46" value="User A" style="whiteSpace=wrap;html=1;aspect=fixed;fontFamily=Verdana;fontSize=12;" parent="1" vertex="1">
                    <mxGeometry x="-243" y="486" width="58" height="58" as="geometry"/>
                </mxCell>
                <mxCell id="48" value="" style="endArrow=none;dashed=1;html=1;dashPattern=1 3;strokeWidth=5;fontSize=12;" parent="1" edge="1">
                    <mxGeometry width="50" height="50" relative="1" as="geometry">
                        <mxPoint x="-217" y="622" as="sourcePoint"/>
                        <mxPoint x="-217" y="558" as="targetPoint"/>
                    </mxGeometry>
                </mxCell>
                <mxCell id="50" value="session_id &lt;font face=&quot;Verdana&quot;&gt;-&amp;gt; Program&lt;/font&gt;" style="text;html=1;strokeColor=none;fillColor=none;align=center;verticalAlign=middle;whiteSpace=wrap;rounded=0;fontSize=8;" parent="1" vertex="1">
                    <mxGeometry x="-120" y="466" width="135" height="30" as="geometry"/>
                </mxCell>
                <mxCell id="55" style="edgeStyle=none;html=1;strokeWidth=1;fontFamily=Verdana;fontSize=12;entryX=1;entryY=0.25;entryDx=0;entryDy=0;" parent="1" source="51" target="45" edge="1">
                    <mxGeometry relative="1" as="geometry">
                        <mxPoint x="136" y="520" as="targetPoint"/>
                    </mxGeometry>
                </mxCell>
                <mxCell id="51" value="Worker 1" style="whiteSpace=wrap;html=1;aspect=fixed;fontFamily=Verdana;fontSize=12;" parent="1" vertex="1">
                    <mxGeometry x="208" y="454" width="58" height="58" as="geometry"/>
                </mxCell>
                <mxCell id="52" value="" style="endArrow=none;dashed=1;html=1;dashPattern=1 3;strokeWidth=5;fontSize=12;" parent="1" edge="1">
                    <mxGeometry width="50" height="50" relative="1" as="geometry">
                        <mxPoint x="235" y="593" as="sourcePoint"/>
                        <mxPoint x="235" y="529" as="targetPoint"/>
                    </mxGeometry>
                </mxCell>
                <mxCell id="56" value="worker_id&amp;nbsp; &lt;font face=&quot;Verdana&quot;&gt;-&amp;gt; &lt;/font&gt;gRPC context" style="text;html=1;strokeColor=none;fillColor=none;align=center;verticalAlign=middle;whiteSpace=wrap;rounded=0;fontSize=8;" parent="1" vertex="1">
                    <mxGeometry x="10.5" y="467" width="135" height="30" as="geometry"/>
                </mxCell>
                <mxCell id="58" value="Program A" style="whiteSpace=wrap;html=1;aspect=fixed;fontFamily=Verdana;fontSize=12;" parent="1" vertex="1">
                    <mxGeometry x="-103" y="497" width="67" height="67" as="geometry"/>
                </mxCell>
                <mxCell id="59" value="UserRequest RPC" style="text;html=1;strokeColor=none;fillColor=none;align=center;verticalAlign=middle;whiteSpace=wrap;rounded=0;fontFamily=Verdana;fontSize=12;" parent="1" vertex="1">
                    <mxGeometry x="433" y="133" width="113" height="30" as="geometry"/>
                </mxCell>
                <mxCell id="60" value="WorkerStream RPC" style="text;html=1;strokeColor=none;fillColor=none;align=center;verticalAlign=middle;whiteSpace=wrap;rounded=0;fontFamily=Verdana;fontSize=12;" parent="1" vertex="1">
                    <mxGeometry x="586.25" y="133" width="127.5" height="30" as="geometry"/>
                </mxCell>
                <mxCell id="61" value="Controller" style="whiteSpace=wrap;html=1;aspect=fixed;fontFamily=Verdana;fontSize=12;" parent="1" vertex="1">
                    <mxGeometry x="1175" y="432" width="80" height="80" as="geometry"/>
                </mxCell>
                <mxCell id="62" value="Worker 1&lt;span style=&quot;color: rgba(0, 0, 0, 0); font-family: monospace; font-size: 0px; text-align: start;&quot;&gt;%3CmxGraphModel%3E%3Croot%3E%3CmxCell%20id%3D%220%22%2F%3E%3CmxCell%20id%3D%221%22%20parent%3D%220%22%2F%3E%3CmxCell%20id%3D%222%22%20value%3D%22Controller%22%20style%3D%22whiteSpace%3Dwrap%3Bhtml%3D1%3Baspect%3Dfixed%3BfontFamily%3DVerdana%3BfontSize%3D12%3B%22%20vertex%3D%221%22%20parent%3D%221%22%3E%3CmxGeometry%20x%3D%221129%22%20y%3D%22431%22%20width%3D%2280%22%20height%3D%2280%22%20as%3D%22geometry%22%2F%3E%3C%2FmxCell%3E%3C%2Froot%3E%3C%2FmxGraphModel%3E&lt;/span&gt;" style="whiteSpace=wrap;html=1;aspect=fixed;fontFamily=Verdana;fontSize=12;" parent="1" vertex="1">
                    <mxGeometry x="1363" y="335" width="80" height="80" as="geometry"/>
                </mxCell>
                <mxCell id="63" value="Worker 2" style="whiteSpace=wrap;html=1;aspect=fixed;fontFamily=Verdana;fontSize=12;" parent="1" vertex="1">
                    <mxGeometry x="1363" y="432" width="80" height="80" as="geometry"/>
                </mxCell>
                <mxCell id="64" value="Worker 3" style="whiteSpace=wrap;html=1;aspect=fixed;fontFamily=Verdana;fontSize=12;" parent="1" vertex="1">
                    <mxGeometry x="1363" y="529" width="80" height="80" as="geometry"/>
                </mxCell>
                <mxCell id="65" value="" style="endArrow=classic;startArrow=classic;html=1;strokeWidth=1;fontFamily=Verdana;fontSize=12;exitX=1;exitY=0.5;exitDx=0;exitDy=0;entryX=0;entryY=0.5;entryDx=0;entryDy=0;" parent="1" source="61" target="62" edge="1">
                    <mxGeometry width="50" height="50" relative="1" as="geometry">
                        <mxPoint x="1264" y="473" as="sourcePoint"/>
                        <mxPoint x="1314" y="423" as="targetPoint"/>
                    </mxGeometry>
                </mxCell>
                <mxCell id="66" value="" style="endArrow=classic;startArrow=classic;html=1;strokeWidth=1;fontFamily=Verdana;fontSize=12;exitX=1;exitY=0.5;exitDx=0;exitDy=0;entryX=0;entryY=0.5;entryDx=0;entryDy=0;" parent="1" source="61" target="63" edge="1">
                    <mxGeometry width="50" height="50" relative="1" as="geometry">
                        <mxPoint x="1282" y="575" as="sourcePoint"/>
                        <mxPoint x="1332" y="525" as="targetPoint"/>
                    </mxGeometry>
                </mxCell>
                <mxCell id="67" value="" style="endArrow=classic;startArrow=classic;html=1;strokeWidth=1;fontFamily=Verdana;fontSize=12;entryX=0;entryY=0.5;entryDx=0;entryDy=0;" parent="1" target="64" edge="1">
                    <mxGeometry width="50" height="50" relative="1" as="geometry">
                        <mxPoint x="1255" y="471" as="sourcePoint"/>
                        <mxPoint x="1371" y="550" as="targetPoint"/>
                    </mxGeometry>
                </mxCell>
                <mxCell id="68" value="REPLY" style="endArrow=classic;html=1;exitX=0.999;exitY=0.364;exitDx=0;exitDy=0;exitPerimeter=0;entryX=-0.001;entryY=0.357;entryDx=0;entryDy=0;entryPerimeter=0;" parent="1" edge="1">
                    <mxGeometry width="50" height="50" relative="1" as="geometry">
                        <mxPoint x="504.99900000000025" y="619.658" as="sourcePoint"/>
                        <mxPoint x="404.9989999999998" y="617.999" as="targetPoint"/>
                    </mxGeometry>
                </mxCell>
                <mxCell id="69" value="" style="shape=cylinder3;whiteSpace=wrap;html=1;boundedLbl=1;backgroundOutline=1;size=5.7391304347826235;rotation=-90;" parent="1" vertex="1">
                    <mxGeometry x="577.25" y="548.75" width="12" height="140.5" as="geometry"/>
                </mxCell>
                <mxCell id="70" value="&lt;span style=&quot;font-family: Helvetica; font-size: 8px; font-style: normal; font-variant-ligatures: normal; font-variant-caps: normal; font-weight: 400; letter-spacing: normal; orphans: 2; text-align: center; text-indent: 0px; text-transform: none; widows: 2; word-spacing: 0px; -webkit-text-stroke-width: 0px; text-decoration-thickness: initial; text-decoration-style: initial; text-decoration-color: initial; float: none; display: inline !important;&quot;&gt;Encapsulate ICMP packet + receive time&lt;/span&gt;" style="text;html=1;strokeColor=none;fillColor=none;align=center;verticalAlign=middle;whiteSpace=wrap;rounded=0;fontSize=8;" parent="1" vertex="1">
                    <mxGeometry x="533" y="624" width="107" height="30" as="geometry"/>
                </mxCell>
            </root>
        </mxGraphModel>
    </diagram>
</mxfile>